PathFileType	4	(X/Y/Z)	31_2_12_p0_0-339_filt_butterworth.trc
DataRate	CameraRate	NumFrames	NumMarkers	Units	OrigDataRate	OrigDataStartFrame	OrigNumFrames
48.0	48.0	7	27	m	48.0	127	339
Frame#	Time	RHip			RKnee			RAnkle			RBigToe			RSmallToe			RHeel			LHip			LKnee			LAnkle			LBigToe			LSmallToe			LHeel			Neck			Head			Nose			RShoulder			RElbow			RWrist			RThumb			RIndex			RPinky			LShoulder			LElbow			LWrist			LThumb			LIndex			LPinky			
		X1	Y1	Z1	X2	Y2	Z2	X3	Y3	Z3	X4	Y4	Z4	X5	Y5	Z5	X6	Y6	Z6	X7	Y7	Z7	X8	Y8	Z8	X9	Y9	Z9	X10	Y10	Z10	X11	Y11	Z11	X12	Y12	Z12	X13	Y13	Z13	X14	Y14	Z14	X15	Y15	Z15	X16	Y16	Z16	X17	Y17	Z17	X18	Y18	Z18	X19	Y19	Z19	X20	Y20	Z20	X21	Y21	Z21	X22	Y22	Z22	X23	Y23	Z23	X24	Y24	Z24	X25	Y25	Z25	X26	Y26	Z26	X27	Y27	Z27	
127	2.645833333333333	0.21469962477299825	0.4547160100850444	0.8415419750612206	0.1810008737315281	0.0041739331927740375	0.9063816210195332	0.12292446636710265	-0.45098979332462596	0.9652702422619179	0.0580703970836841	-0.4203236481436644	0.7024092561619484	0.12214203177398691	-0.4424012440986454	0.7521537343975561	0.10216914611873702	-0.5170162634122268	1.020473074259354	0.006453557414949272	0.4610132290361525	0.8482367788220593	-0.03828034352022366	0.02119600062147531	0.9170919811267103	-0.056483952992144426	-0.40802223545488614	0.9438753975467247	-0.0686374787349017	-0.43186841802892784	0.7631758282671817	-0.12387578200860118	-0.43505696512448205	0.7988322420713723	-0.03025875827573906	-0.49230144442444534	1.0207741969673922	0.14635751619395612	1.0584472913741196	0.855492523471572	0.21619069678263647	1.3116547032652048	0.7026723771805354	0.22658492443920752	1.1482871416840748	0.6722052588982126	0.29552161522525444	0.9961661173190437	0.9161199107927995	0.36119222470018897	0.7557532537606202	0.8297843912208333	0.4795161385547034	0.9438101723255026	0.8279999592146995	0.544521220545266	1.020686927705753	0.800231267634473	0.5764830789619166	1.0335886001810413	0.8204206854130518	0.5848409242468843	1.000178239691258	0.8399012551408797	-0.020393133326522594	1.0155593214959817	0.897027817699166	-0.1807034776914862	0.8065508094774994	0.8503525545799129	-0.17473142969297523	1.0051107117818918	0.8139067502961519	-0.206592816361031	1.0945173856307242	0.7405535174722067	-0.25528230427186976	1.1001744757158873	0.8046090827637948	-0.2594636509158331	1.0917884753923575	0.8062003300161781	
128	2.6666666666666665	0.21476800677995012	0.4549018715142363	0.8416391565755401	0.18103026428597643	0.004177255074450048	0.9064194884572243	0.12283884486919938	-0.45025102268633177	0.9650886380427539	0.05807049249481601	-0.4203225171117616	0.7024139111481091	0.12222487537671736	-0.44239721873621984	0.7522516144811995	0.10216313126626914	-0.5170154996514058	1.0204760845656982	0.0073358790576681055	0.46151955138466516	0.8462805041580128	-0.03798983185585827	0.021229057911553106	0.9171821793528225	-0.05648845623488762	-0.4081882154881984	0.9447252846751683	-0.06862189009617402	-0.4316046715758031	0.7632534095360777	-0.12389566661920154	-0.4351381431198704	0.7988572174525443	-0.03022529323560275	-0.492514303731027	1.0211840782237778	0.14632686238298737	1.0576795112235593	0.8555308026278905	0.21870932797372677	1.3109473118714385	0.6981653786266356	0.2275324068663136	1.1479463612461804	0.6721365199615384	0.29543671922373793	0.99801325699632	0.915799457568409	0.35859245877789653	0.7539826055248164	0.830172897193366	0.47963746338273694	0.9415779028127516	0.8286952516625739	0.5454545594832355	1.0204881427563899	0.7963731671476273	0.5746716765038671	1.03240972469423	0.816993015904508	0.5821396468763184	0.9983065169821204	0.8377564208323016	-0.021282583631486766	1.01581050734126	0.8941701330543682	-0.17816996890099943	0.8052775776903738	0.8453417333241275	-0.17441244679149281	1.0032271407519784	0.8076132982975894	-0.20319467084942783	1.0937996761639028	0.7291574664583369	-0.2538698417057212	1.0974751876080082	0.7975689194148964	-0.25933181600735916	1.0894621104258493	0.8011325695634908	
129	2.6875	0.21481437148490778	0.45502082880518135	0.8417235339009561	0.1810573003679947	0.004177019206228927	0.9064598352792376	0.12275783917617623	-0.4495502213366347	0.9649177553551325	0.05806546622903408	-0.42036336163747934	0.7024484923881978	0.12266330756878854	-0.44247632558203864	0.7524413329888623	0.10215519835028453	-0.5170201260185275	1.020476122811107	0.007977750449183252	0.4618500828809551	0.844808093481195	-0.0376324967754271	0.021125084138728156	0.917306617839933	-0.056592559857712485	-0.40839039152416506	0.9456975154881511	-0.06861321865735996	-0.43140746231920724	0.7632808977834552	-0.12392062006739166	-0.435226790510349	0.7988848971099285	-0.030206617025299653	-0.49264148496058635	1.0216961053609408	0.14633625005462852	1.0570181233746831	0.8556434064881624	0.22127536199312015	1.3105241199821667	0.6943116500190306	0.22824216339136444	1.1474488388136226	0.6726915315607085	0.29532760075398623	0.9997053498418249	0.9150684957396893	0.356174442730427	0.7517863931372851	0.8309389289625148	0.47968207421967096	0.9391800644094821	0.8285529027275539	0.5467114850425362	1.019549214246648	0.7955150556161128	0.5741766881705879	1.0296409723179796	0.8157403332306692	0.5805823725054335	0.9959059357920135	0.8379663859145567	-0.022202154447753447	1.0156831206041639	0.8917639602588848	-0.1756416589893575	0.8034302298656171	0.8417854721047038	-0.17438785281562696	1.0014677508659684	0.8017605602658311	-0.2011751571361429	1.09313457458471	0.7213017771138578	-0.25118119619540874	1.0957367355282397	0.7877105966151354	-0.25819130132910445	1.086530881720047	0.7974319558639371	
130	2.708333333333333	0.21483229109288743	0.4550063165178565	0.8417824339974225	0.18108026834451982	0.00417576848429263	0.906497828296511	0.12268973386831594	-0.4489668204641934	0.96477866101698	0.0581041022487573	-0.4205069934787336	0.7026143327920609	0.12340977936917508	-0.4426337231009081	0.7527118676205755	0.10214561841205175	-0.5170328805594587	1.0204742647525502	0.008360229805811746	0.4620361572905244	0.8438853553753856	-0.037239775185945435	0.020924337327829945	0.9173885307336094	-0.05684127542602524	-0.4086490245818157	0.9468406832885365	-0.06861614174893108	-0.4312290329640771	0.7632751525794823	-0.12395053370180933	-0.4353309472860514	0.7989440213169109	-0.03019253343771627	-0.4926557294872508	1.0221122601718602	0.14634292895999396	1.0566375774579488	0.8557178466381719	0.2233891792359442	1.310438450008282	0.6919089751558958	0.2285904290206935	1.1468136435139111	0.6732892006887534	0.29522640032458713	1.0006431829141595	0.9139477420018907	0.35436326898650694	0.7494037250865849	0.8318223393058013	0.47970189631210153	0.9367575128236502	0.8284903229388783	0.5481343289275395	1.0181492522631355	0.7977731353070479	0.5751686597267094	1.0257779443168584	0.8170866564372307	0.5800396863966577	0.9929675496829491	0.8405946057036522	-0.023013607854756396	1.0148786073762799	0.889814185014391	-0.17291998745193515	0.8013104417345494	0.839108416453012	-0.174721971184175	0.9999736501550454	0.7969212056770191	-0.20071521286298266	1.0925294343258323	0.7178441902321542	-0.2478922894285106	1.0946614382578654	0.7762815570621964	-0.2564617977493468	1.0832219258024527	0.794134343983017	
131	2.7291666666666665	0.21482657132206348	0.45485623063535247	0.8418284668667241	0.1810989214598278	0.004172060626778995	0.9065314878885627	0.12263886286705074	-0.44853869249013195	0.9646811628320762	0.058231478339437794	-0.4208102934959344	0.703009498593877	0.12433764476731068	-0.4428633427457606	0.7530596432952678	0.1021357764081414	-0.5170542361783464	1.0204715200110435	0.00852972231438437	0.46210048317335484	0.8435266103034178	-0.03686305006509357	0.020665381578345965	0.9174409061716957	-0.057235974837430606	-0.40896929474799454	0.9481279392328343	-0.06863743101465225	-0.4310417141448859	0.7632590660136562	-0.12397596352664585	-0.4354253932232777	0.7990195039588158	-0.030105391819985006	-0.4926474291625536	1.0224805285753775	0.14633806529334917	1.0565870232350405	0.8557265466925108	0.2247292943490226	1.3105311760475842	0.6913282317668848	0.2286038851176718	1.146136062090149	0.6735926077431906	0.2951272614648459	1.0002235448496528	0.9130764703962948	0.3532390183717568	0.74697809222607	0.8329350521743646	0.4797757097958911	0.9343789614507951	0.8288124353910894	0.549587412762705	1.0166049842356288	0.8023360652211323	0.5781526959781051	1.0217620472185602	0.8207248952849393	0.5805889936420989	0.9901787428709888	0.8449325122186894	-0.02373317682590011	1.013320166189435	0.8880619488635575	-0.1699703768174937	0.7989445956056248	0.837758463444331	-0.17528025459167662	0.9987375966070583	0.7931495869823133	-0.20135274360030725	1.0920045330254224	0.7177403757185473	-0.24454417695199804	1.093911266728271	0.7637518243523617	-0.25430711541640755	1.079098679681643	0.7905199440980428	
132	2.75	0.21480986847983707	0.4546533876882031	0.8418731425307826	0.18111419683596838	0.004159904380583335	0.9065642366297718	0.12260515818646697	-0.4482582643411864	0.9646213630352876	0.05835198863626939	-0.42111692588060673	0.7033939359552392	0.12536354994179247	-0.4431570671044974	0.7534601799785605	0.10212664150418643	-0.5170801228100442	1.0204690297750452	0.008537632219841369	0.46210462089132076	0.8436115650593495	-0.036532563718254404	0.020359676099907964	0.9174856505958024	-0.05770147168768829	-0.4094073029483583	0.9495202680035366	-0.06866908254524721	-0.4309861441772223	0.7631918947911958	-0.12394915224569483	-0.43540435616082285	0.7989500396543423	-0.029923251425701767	-0.49269135571583045	1.0229296846891152	0.14632398329097535	1.0567265847675127	0.8557024572714229	0.22542825800511257	1.310543277663396	0.6919384013288561	0.22846068676496029	1.1455661071519039	0.6736581475215442	0.29500420629274954	0.9983032436358129	0.913320630847178	0.35231728401738927	0.7445212082210976	0.8348940289015604	0.4798114777145843	0.9319330003133112	0.82896349771694	0.5509683414813519	1.015059657469534	0.807772250477895	0.5829481066813893	1.0184595822197413	0.82574324482418	0.5823134153429548	0.9880447006694063	0.8500192560417462	-0.024438046168936446	1.011276874604974	0.886274097193845	-0.1666136958921618	0.7961125652866325	0.8383646675766392	-0.17569603392820649	0.9974044948743621	0.7899910468955319	-0.20250953113238793	1.0914746417449943	0.7189268706139019	-0.2414912627544952	1.0933238247212755	0.750453147301355	-0.251628154749737	1.073513174962522	0.7853280945279145	
133	2.770833333333333	0.2147926899898928	0.45448180557232926	0.8419203607567873	0.18112678624098066	0.004135092543323948	0.9066003197208876	0.1225885208758793	-0.44811565590756747	0.9645941938459498	0.058250564351845696	-0.42107284461012723	0.7032279297632507	0.12641392701395585	-0.44346440722933783	0.7538211929160519	0.10211739476936897	-0.5171060585604706	1.0204666070985795	0.008415122838293803	0.46212627544010676	0.8438792053357642	-0.036253815242866805	0.020006529684959418	0.9175119592753187	-0.05812214428305308	-0.4100398642863291	0.950992501123317	-0.06869461932292314	-0.43127338864839154	0.7629681886063922	-0.12382535720008704	-0.43517799163821097	0.7985631958312925	-0.02973300943067716	-0.49276030537415105	1.0234404272215663	0.14630531510211672	1.0568248863254892	0.8556859259682559	0.22582859367103955	1.310388747741601	0.6926492314095049	0.22834770165882629	1.145247940700393	0.673654775619123	0.2949306871067584	0.9953864324507175	0.9149231650718851	0.350875863770586	0.742041713843632	0.8382353675534394	0.4795762994637258	0.9293340693370148	0.828309615809839	0.5523200607257703	1.0139676102728923	0.8122370987035049	0.5880753780154817	1.0164233456880871	0.8305469893372306	0.5845632091929045	0.9861907437263284	0.8545410493052437	-0.025079406574823312	1.00927263613673	0.8844230473057905	-0.16248884073834124	0.7928585367100981	0.840481974903342	-0.17569488250895954	0.9955840479286646	0.7869920045984213	-0.20415758185172433	1.0908618469753084	0.719827193272732	-0.23909670886954848	1.0928795333417274	0.7376612433293395	-0.24831731110841965	1.066278065899492	0.7774535957250147	
